<svg width="431" height="212" viewBox="0 0 431 212" fill="none" xmlns="http://www.w3.org/2000/svg">
<path fill-rule="evenodd" clip-rule="evenodd" d="M9.03226 23.1304H12.6452V21.3912H9.03226V23.1304Z" fill="#303C42"/>
<path fill-rule="evenodd" clip-rule="evenodd" d="M4.51613 7.47818H7.22581V4.86949H4.51613V7.47818Z" fill="#303C42"/>
<path fill-rule="evenodd" clip-rule="evenodd" d="M25.2903 14.4347V12.6956H22.5806V9.21731H20.7742V7.47818H18.0645V9.21731H9.93548V7.47818H7.22581V9.21731H5.41935V12.6956H2.70968V14.4347H0.903226V21.3912H3.6129V17.0434H6.32258V21.3912H9.03226V18.7825H18.9677V21.3912H21.6774V17.0434H24.3871V21.3912H27.0968V14.4347H25.2903Z" fill="#303C42"/>
<path fill-rule="evenodd" clip-rule="evenodd" d="M7.22581 13.5651H9.93548V10.9564H7.22581V13.5651Z" fill="#303C42"/>
<path fill-rule="evenodd" clip-rule="evenodd" d="M18.0645 13.5651H20.7742V10.9564H18.0645V13.5651Z" fill="#303C42"/>
<path fill-rule="evenodd" clip-rule="evenodd" d="M15.3548 23.1304H18.9677L18.9677 21.3912H15.3548V23.1304Z" fill="#303C42"/>
<path fill-rule="evenodd" clip-rule="evenodd" d="M20.7742 7.47818H23.4839V4.86949H20.7742V7.47818Z" fill="#303C42"/>
<path d="M74 -8.00237e-05C66.2807 -8.00237e-05 60 6.28063 60 13.9999C60 21.7192 66.2807 27.9999 74 27.9999C81.7193 27.9999 88 21.7192 88 13.9999C88 6.28063 81.7196 -8.00237e-05 74 -8.00237e-05ZM74 27.0093C66.8264 27.0093 60.9906 21.1732 60.9906 13.9999C60.9906 6.82601 66.8264 0.990187 74 0.990187C81.1736 0.990187 87.0094 6.82601 87.0094 13.9999C87.0094 21.1732 81.1736 27.0093 74 27.0093Z" fill="#303C42"/>
<path d="M74 8.94989C74.5725 8.94989 75.0366 8.48578 75.0366 7.91327C75.0366 7.34076 74.5725 6.87664 74 6.87664C73.4275 6.87664 72.9634 7.34076 72.9634 7.91327C72.9634 8.48578 73.4275 8.94989 74 8.94989Z" fill="#303C42"/>
<path d="M74 11.1359C73.6761 11.1359 73.4136 11.3985 73.4136 11.7223V20.5762C73.4136 20.9001 73.6761 21.1627 74 21.1627C74.3239 21.1627 74.5865 20.9001 74.5865 20.5762V11.7223C74.5865 11.3985 74.3239 11.1359 74 11.1359Z" fill="#303C42"/>
<path fill-rule="evenodd" clip-rule="evenodd" d="M143.404 13.9999C143.404 21.4028 137.403 27.4042 130 27.4042C122.597 27.4042 116.596 21.4028 116.596 13.9999C116.596 6.59708 122.597 0.595669 130 0.595669C137.403 0.595669 143.404 6.59708 143.404 13.9999Z" fill="#303C42"/>
<path fill-rule="evenodd" clip-rule="evenodd" d="M133.698 9.83999C133.698 11.8821 132.042 13.5377 130 13.5377C127.958 13.5377 126.302 11.8821 126.302 9.83999C126.302 7.79792 127.958 6.14227 130 6.14227C132.042 6.14227 133.698 7.79792 133.698 9.83999Z" fill="#303C42"/>
<path fill-rule="evenodd" clip-rule="evenodd" d="M130 15.3865C127.503 15.3865 125.233 16.3609 123.78 17.1661C122.777 17.7235 122.142 18.8328 122.142 20.0522V20.6438C122.142 21.3149 122.644 21.8576 123.265 21.8576H136.735C137.355 21.8576 137.858 21.3149 137.858 20.6438V20.0522C137.858 18.8328 137.223 17.7235 136.22 17.1661C134.767 16.3609 132.497 15.3865 130 15.3865Z" fill="#303C42"/>
<path d="M174.333 16.0688H175.45V27.4866C175.45 27.7703 175.696 27.9999 176 27.9999C176.304 27.9999 176.55 27.7703 176.55 27.4866V16.0688H177.667C178.889 16.0688 179.883 15.1405 179.883 13.9996V12.4441C179.883 11.3032 178.889 10.3752 177.667 10.3752H176.55V0.513253C176.55 0.229831 176.304 -8.00237e-05 176 -8.00237e-05C175.696 -8.00237e-05 175.45 0.229831 175.45 0.513253V10.3755H174.333C173.111 10.3755 172.117 11.3035 172.117 12.4444V13.9999C172.117 15.1405 173.111 16.0688 174.333 16.0688ZM173.217 12.4444C173.217 11.8697 173.717 11.4021 174.333 11.4021H177.667C178.282 11.4021 178.783 11.8697 178.783 12.4444V13.9999C178.783 14.5749 178.282 15.0421 177.667 15.0421H174.333C173.717 15.0421 173.217 14.5749 173.217 13.9999V12.4444Z" fill="#303C42"/>
<path d="M184.333 22.291H185.45V27.4866C185.45 27.7703 185.696 27.9999 186 27.9999C186.304 27.9999 186.55 27.7703 186.55 27.4866V22.291H187.667C188.889 22.291 189.883 21.3627 189.883 20.2225V18.6666C189.883 17.5254 188.889 16.5977 187.667 16.5977H186.55V0.513253C186.55 0.229831 186.304 -8.00237e-05 186 -8.00237e-05C185.696 -8.00237e-05 185.45 0.229831 185.45 0.513253V16.5977H184.333C183.111 16.5977 182.116 17.5254 182.116 18.6666V20.2225C182.116 21.3627 183.111 22.291 184.333 22.291ZM183.217 18.6666C183.217 18.0917 183.717 17.6244 184.333 17.6244H187.667C188.283 17.6244 188.783 18.0917 188.783 18.6666V20.2225C188.783 20.7971 188.283 21.2644 187.667 21.2644H184.333C183.717 21.2644 183.217 20.7971 183.217 20.2225V18.6666Z" fill="#303C42"/>
<path d="M194.333 11.4018H195.45V27.4863C195.45 27.77 195.696 27.9996 196 27.9996C196.304 27.9996 196.55 27.77 196.55 27.4863V11.4018H197.667C198.889 11.4018 199.883 10.4738 199.883 9.33294V7.77739C199.883 6.63654 198.889 5.7085 197.667 5.7085H196.55V0.513253C196.55 0.229831 196.304 -8.00237e-05 196 -8.00237e-05C195.696 -8.00237e-05 195.45 0.229831 195.45 0.513253V5.70881H194.333C193.111 5.70881 192.117 6.63685 192.117 7.7777V9.33325C192.117 10.4741 193.111 11.4018 194.333 11.4018ZM193.217 7.7777C193.217 7.20276 193.718 6.73548 194.333 6.73548H197.667C198.283 6.73548 198.783 7.20276 198.783 7.7777V9.33325C198.783 9.90788 198.283 10.3755 197.667 10.3755H194.333C193.718 10.3755 193.217 9.90788 193.217 9.33325V7.7777Z" fill="#303C42"/>
<path d="M246.036 61.7128C247.53 59.9373 248.443 57.5762 248.443 54.9897C248.443 49.4815 244.306 44.9999 239.221 44.9999C234.137 44.9996 230 49.4812 230 54.9894C230 60.4977 234.137 64.9793 239.221 64.9793C241.61 64.9793 243.788 63.9904 245.427 62.3715L253.266 70.8634C253.434 71.0454 253.706 71.0454 253.874 70.8634C254.042 70.6814 254.042 70.3867 253.874 70.2047L246.036 61.7128ZM239.222 64.0479C234.611 64.0479 230.86 59.9844 230.86 54.9897C230.86 49.9945 234.611 45.931 239.222 45.931C243.832 45.931 247.583 49.9945 247.583 54.9897C247.583 59.9841 243.832 64.0479 239.222 64.0479Z" fill="#303C42"/>
<path fill-rule="evenodd" clip-rule="evenodd" d="M306.528 16.8266C306.731 17.0517 306.725 17.4026 306.515 17.6202C306.304 17.8378 305.965 17.844 305.747 17.6342L299.853 11.539L294.164 17.6342C293.947 17.844 293.607 17.8378 293.397 17.6202C293.186 17.4026 293.18 17.0517 293.383 16.8266L299.853 10.0304L306.528 16.8266Z" fill="#303C42"/>
<path d="M300 52.5533C296.857 52.5533 294.3 54.9971 294.3 58.0005C294.3 61.004 296.857 63.4475 300 63.4475C303.143 63.4475 305.7 61.004 305.7 58.0005C305.7 54.9971 303.143 52.5533 300 52.5533ZM300 62.4569C297.429 62.4569 295.337 60.4574 295.337 58.0005C295.337 55.5434 297.429 53.5442 300 53.5442C302.571 53.5442 304.663 55.5434 304.663 58.0005C304.663 60.4574 302.571 62.4569 300 62.4569Z" fill="#303C42"/>
<path d="M311.002 55.9674L312.709 55.026C313.19 54.76 313.535 54.3297 313.68 53.8139C313.824 53.2978 313.751 52.7599 313.473 52.3001L311.903 49.701C311.625 49.2409 311.174 48.9108 310.634 48.7727C310.095 48.6349 309.531 48.7045 309.05 48.9705L307.343 49.912C307.111 50.0405 306.694 50.009 306.485 49.8469C306.466 49.832 306.015 49.4836 305.363 49.1239C304.719 48.7674 304.17 48.5658 304.148 48.5574C303.897 48.4653 303.659 48.1358 303.659 47.8782V45.996C303.659 44.895 302.722 43.9999 301.57 43.9999H298.43C297.278 43.9999 296.341 44.895 296.341 45.9957V47.8785C296.341 48.1352 296.104 48.4653 295.853 48.5574C295.83 48.5658 295.282 48.768 294.637 49.1239C293.986 49.4836 293.535 49.832 293.516 49.8466C293.308 50.0087 292.891 50.0405 292.658 49.912L290.95 48.9699C290.469 48.7042 289.906 48.6345 289.366 48.7724C288.826 48.9105 288.375 49.2406 288.097 49.7004L286.527 52.2994C286.249 52.7596 286.176 53.2975 286.32 53.813C286.465 54.3294 286.81 54.7597 287.291 55.0254L288.998 55.9671C289.231 56.0953 289.411 56.4562 289.368 56.7094C289.364 56.7318 289.275 57.2685 289.275 57.9999C289.275 58.7313 289.364 59.2674 289.368 59.2898C289.41 59.5427 289.23 59.9039 288.998 60.0321L287.291 60.9735C286.81 61.2392 286.465 61.6698 286.32 62.1862C286.176 62.7017 286.249 63.2403 286.527 63.7001L288.097 66.2991C288.674 67.2517 289.953 67.579 290.951 67.0296L292.657 66.0882C292.89 65.9594 293.307 65.9914 293.515 66.1532C293.534 66.1681 293.986 66.5169 294.637 66.8769C295.282 67.2334 295.83 67.4353 295.853 67.4434C296.104 67.5355 296.341 67.8653 296.341 68.1222V70.0038C296.341 71.1039 297.278 71.9996 298.43 71.9996H301.571C302.722 71.9996 303.659 71.1039 303.659 70.0038V68.1222C303.659 67.8656 303.897 67.5355 304.148 67.4434C304.17 67.4353 304.719 67.2331 305.364 66.8769C306.016 66.5169 306.467 66.1681 306.486 66.1532C306.694 65.9914 307.112 65.96 307.344 66.0882L309.05 67.029C309.531 67.295 310.095 67.365 310.634 67.2272C311.174 67.089 311.625 66.7586 311.903 66.2988L313.473 63.6998C313.751 63.2397 313.824 62.7021 313.68 62.1865C313.535 61.6701 313.19 61.2392 312.708 60.9738L311.002 60.0324C310.77 59.9042 310.59 59.5437 310.633 59.2901C310.637 59.2677 310.725 58.7313 310.725 58.0002C310.725 57.2682 310.636 56.7321 310.632 56.7097C310.59 56.4565 310.77 56.0956 311.002 55.9674ZM309.61 56.8662C309.61 56.8712 309.689 57.3525 309.689 58.0002C309.689 58.648 309.61 59.1289 309.61 59.133C309.499 59.7873 309.884 60.5591 310.484 60.8901L312.191 61.8313C312.433 61.965 312.606 62.1819 312.679 62.4429C312.752 62.703 312.715 62.974 312.576 63.2048L311.006 65.8038C310.866 66.0353 310.639 66.2005 310.366 66.2708C310.094 66.3408 309.81 66.3053 309.568 66.1719L307.863 65.2314C307.263 64.8997 306.371 64.9676 305.833 65.3848C305.829 65.3885 305.422 65.7018 304.846 66.0197C304.276 66.3346 303.781 66.5181 303.777 66.5194C303.13 66.7565 302.623 67.4608 302.623 68.1225V70.0041C302.623 70.5585 302.151 71.0093 301.571 71.0093H298.431C297.851 71.0093 297.379 70.5585 297.379 70.0041V68.1225C297.379 67.4608 296.872 66.7561 296.225 66.5191C296.22 66.5172 295.731 66.3374 295.156 66.0197C294.58 65.7018 294.173 65.3885 294.169 65.3848C293.631 64.9676 292.739 64.8994 292.14 65.2314L290.988 65.8667L290.99 65.8717C290.885 65.9239 290.72 66.0145 290.434 66.1722C289.93 66.4497 289.286 66.2842 288.996 65.8048L287.426 63.2057C287.286 62.9743 287.25 62.7033 287.323 62.4432C287.396 62.1822 287.569 61.9653 287.811 61.8316C288.131 61.6555 288.284 61.5715 288.364 61.5248L288.365 61.5264L289.516 60.8901C290.117 60.5591 290.5 59.7869 290.391 59.1336C290.39 59.1289 290.312 58.6477 290.312 58.0002C290.312 57.3525 290.39 56.8709 290.391 56.8669C290.501 56.2126 290.117 55.4407 289.516 55.1097C288.463 54.5282 288.361 54.4722 288.361 54.4722C288.361 54.4722 288.362 54.4732 288.363 54.4738L287.809 54.168C287.568 54.0348 287.394 53.8177 287.321 53.5569C287.248 53.2965 287.285 53.0259 287.424 52.7944L288.995 50.1954C289.134 49.9645 289.361 49.7987 289.634 49.729C289.906 49.659 290.19 49.6945 290.431 49.827L292.139 50.7691C292.74 51.1004 293.631 51.0329 294.169 50.6154C294.173 50.612 294.579 50.2996 295.156 49.981C295.725 49.6662 296.219 49.4829 296.224 49.4817C296.87 49.2446 297.377 48.5409 297.377 47.8785V45.9957C297.377 45.4413 297.849 44.9902 298.429 44.9902H301.57C302.15 44.9902 302.622 45.4413 302.622 45.9957V47.8779C302.622 48.5403 303.129 49.2446 303.775 49.4814C303.78 49.4833 304.274 49.6662 304.844 49.9807C305.42 50.299 305.827 50.6117 305.831 50.6151C306.368 51.0326 307.26 51.1004 307.86 50.7691L309.567 49.828C309.808 49.6942 310.091 49.659 310.365 49.7293C310.638 49.799 310.864 49.9645 311.004 50.1954L312.574 52.7944C312.714 53.0259 312.751 53.2969 312.677 53.5569C312.604 53.8177 312.431 54.0348 312.189 54.168L310.484 55.1097C309.883 55.4407 309.499 56.2126 309.61 56.8662Z" fill="#303C42"/>
<path d="M365.306 10.746C366.987 10.746 368.356 9.37712 368.357 7.69556C368.357 6.88076 368.039 6.11388 367.463 5.5377C366.886 4.9609 366.12 4.64388 365.305 4.64388C363.623 4.64388 362.254 6.01245 362.254 7.69494C362.254 9.37712 363.623 10.746 365.306 10.746ZM365.305 5.63445C365.856 5.63445 366.373 5.8485 366.763 6.2377C367.152 6.62752 367.366 7.14428 367.366 7.69556C367.366 8.83112 366.441 9.75512 365.306 9.75512C364.17 9.75512 363.245 8.83112 363.245 7.69494C363.245 6.55908 364.169 5.63445 365.305 5.63445Z" fill="#303C42"/>
<path d="M353.004 26.4219C354.022 27.4396 355.381 28.0005 356.83 28.0005C358.279 28.0005 359.638 27.4396 360.656 26.4219L371.313 15.7651C372.121 14.9569 372.788 13.4299 372.833 12.2888L372.998 8.04894C373.043 6.89472 372.438 5.35099 371.622 4.53401L368.466 1.37872C367.652 0.564545 366.115 -0.0495887 364.951 0.00205573L360.712 0.167567C359.57 0.212367 358.044 0.879078 357.235 1.68734L346.578 12.3438C345.561 13.3618 345 14.7204 345 16.1702C345 17.619 345.561 18.9777 346.578 19.9959L353.004 26.4219ZM347.279 13.0445L357.936 2.38797C358.568 1.75548 359.857 1.19143 360.75 1.15721L364.99 0.992011C365.017 0.990456 365.045 0.989834 365.074 0.989834C365.957 0.989834 367.165 1.47828 367.765 2.07934L370.921 5.23463C371.545 5.8581 372.043 7.12961 372.008 8.01037L371.843 12.2508C371.809 13.1437 371.245 14.4323 370.613 15.0648L359.955 25.7213C359.125 26.552 358.015 27.0099 356.83 27.0099C355.645 27.0099 354.535 26.552 353.705 25.7213L347.279 19.2953C345.556 17.5721 345.556 14.7674 347.279 13.0445Z" fill="#303C42"/>
<path d="M349.85 71.9999C350.075 71.9999 350.373 71.8951 350.715 71.5099L358.73 62.4613C358.879 62.293 359.121 62.2936 359.269 62.4613L367.285 71.5099C367.627 71.8951 367.925 71.9999 368.15 71.9999C368.272 71.9999 368.372 71.9688 368.445 71.9343C368.653 71.8375 369 71.5501 369 70.7082V47.579C369 45.6053 367.578 43.9999 365.83 43.9999H352.171C350.422 43.9999 349 45.6053 349 47.579V70.7079C349 71.5497 349.347 71.8375 349.554 71.934C349.628 71.9688 349.728 71.9999 349.85 71.9999ZM349.877 47.579C349.877 46.1516 350.905 44.9902 352.17 44.9902H365.83C367.094 44.9902 368.122 46.1516 368.122 47.579V70.7079C368.122 70.8373 368.109 70.9256 368.096 70.981C368.051 70.9527 367.987 70.9008 367.906 70.809L359.89 61.7606C359.399 61.2075 358.601 61.2075 358.111 61.7606L350.094 70.8093C350.013 70.9011 349.949 70.953 349.904 70.9813C349.891 70.926 349.877 70.8376 349.877 70.7082L349.877 47.579Z" fill="#303C42"/>
<path d="M429 13.7854C429 11.9992 428.019 11.0937 426.085 11.0937H421.903C421.607 11.0937 421.389 11.0106 421.287 10.8599C421.178 10.6987 421.185 10.4337 421.305 10.1333C422.29 7.68035 423.169 4.28947 421.761 2.06654C420.968 0.814522 419.562 0.119716 417.58 0.00204766C416.967 -0.036863 416.456 0.463057 416.456 1.08004V3.3313C416.456 6.10491 415.544 7.28877 414.033 9.24929C413.077 10.4892 411.921 11.9927 410.671 14.3184C410.189 13.386 409.217 12.7454 408.098 12.7454H403.896C402.3 12.7454 401 14.0457 401 15.6432V25.1021C401 26.6996 402.3 27.9999 403.896 27.9999H408.098C409.106 27.9999 409.995 27.4807 410.513 26.6965C413.618 27.5604 417.7 27.9999 422.653 27.9999C424.796 27.9999 426.075 27.1339 426.075 25.6836C426.075 25.4252 426.075 24.9035 425.817 24.4459C426.792 24.125 427.35 23.263 427.35 22.006C427.35 21.479 427.248 20.9016 426.901 20.4508C427.8 20.0819 428.326 19.1982 428.326 17.967C428.326 17.2212 428.125 16.6256 427.747 16.2054C428.54 15.7954 429 14.9431 429 13.7854ZM410.003 15.736L410.002 25.1168C409.994 26.1614 409.143 27.0081 408.097 27.0081H403.896C402.845 27.0081 401.991 26.1524 401.991 25.1018V15.6429C401.991 14.5914 402.845 13.7359 403.896 13.7359H408.098C409.149 13.7359 410.003 14.5914 410.003 15.6429L410.003 15.736ZM426.535 15.4854H425.859C425.586 15.4854 425.364 15.7073 425.364 15.9813C425.364 16.2546 425.586 16.4768 425.859 16.4768C426.893 16.4768 427.335 16.9223 427.335 17.9664C427.335 18.7346 427.079 19.6514 425.859 19.6514H424.885C424.611 19.6514 424.389 19.8734 424.389 20.147C424.389 20.4206 424.611 20.6429 424.885 20.6429C425.96 20.6429 426.359 21.0117 426.359 22.0057C426.359 23.074 425.877 23.5936 424.885 23.5936H424.003C423.729 23.5936 423.508 23.8152 423.508 24.0892C423.508 24.3625 423.729 24.5847 424.003 24.5847C425.084 24.5847 425.084 25.0937 425.084 25.6833C425.084 26.8796 423.384 27.0084 422.653 27.0084C417.904 27.0084 413.984 26.6028 410.993 25.8022V25.118C410.993 25.1127 410.994 25.1074 410.994 25.1021V15.8511C412.416 12.9698 413.746 11.2447 414.817 9.85412C416.343 7.87368 417.446 6.44236 417.446 3.331V1.07973C417.446 1.03148 417.479 0.991018 417.521 0.991018C419.166 1.08845 420.311 1.62917 420.924 2.59667C422.17 4.56341 421.122 7.93127 420.386 9.76384C420.137 10.3833 420.166 10.9695 420.467 11.4143C420.759 11.8467 421.268 12.0842 421.903 12.0842H426.085C427.688 12.0842 428.01 12.7348 428.01 13.7851C428.009 14.5609 427.754 15.4854 426.535 15.4854Z" fill="#303C42"/>
<path d="M429 13.7854C429 11.9992 428.019 11.0937 426.085 11.0937H421.903C421.607 11.0937 421.389 11.0106 421.287 10.8599C421.178 10.6987 421.185 10.4337 421.305 10.1333C422.29 7.68035 423.169 4.28947 421.761 2.06654C420.968 0.814522 419.562 0.119716 417.58 0.00204766C416.967 -0.036863 416.456 0.463057 416.456 1.08004V3.3313C416.456 6.10491 415.544 7.28877 414.033 9.24929C413.077 10.4892 411.921 11.9927 410.671 14.3184C410.189 13.386 409.217 12.7454 408.098 12.7454H403.896C402.3 12.7454 401 14.0457 401 15.6432V25.1021C401 26.6996 402.3 27.9999 403.896 27.9999H408.098C409.106 27.9999 409.995 27.4807 410.513 26.6965C413.618 27.5604 417.7 27.9999 422.653 27.9999C424.796 27.9999 426.075 27.1339 426.075 25.6836C426.075 25.4252 426.075 24.9035 425.817 24.4459C426.792 24.125 427.35 23.263 427.35 22.006C427.35 21.479 427.248 20.9016 426.901 20.4508C427.8 20.0819 428.326 19.1982 428.326 17.967C428.326 17.2212 428.125 16.6256 427.747 16.2054C428.54 15.7954 429 14.9431 429 13.7854ZM410.003 15.736L410.002 25.1168C409.994 26.1614 409.143 27.0081 408.097 27.0081H403.896C402.845 27.0081 401.991 26.1524 401.991 25.1018V15.6429C401.991 14.5914 402.845 13.7359 403.896 13.7359H408.098C409.149 13.7359 410.003 14.5914 410.003 15.6429L410.003 15.736ZM426.535 15.4854H425.859C425.586 15.4854 425.364 15.7073 425.364 15.9813C425.364 16.2546 425.586 16.4768 425.859 16.4768C426.893 16.4768 427.335 16.9223 427.335 17.9664C427.335 18.7346 427.079 19.6514 425.859 19.6514H424.885C424.611 19.6514 424.389 19.8734 424.389 20.147C424.389 20.4206 424.611 20.6429 424.885 20.6429C425.96 20.6429 426.359 21.0117 426.359 22.0057C426.359 23.074 425.877 23.5936 424.885 23.5936H424.003C423.729 23.5936 423.508 23.8152 423.508 24.0892C423.508 24.3625 423.729 24.5847 424.003 24.5847C425.084 24.5847 425.084 25.0937 425.084 25.6833C425.084 26.8796 423.384 27.0084 422.653 27.0084C417.904 27.0084 413.984 26.6028 410.993 25.8022V25.118C410.993 25.1127 410.994 25.1074 410.994 25.1021V15.8511C412.416 12.9698 413.746 11.2447 414.817 9.85412C416.343 7.87368 417.446 6.44236 417.446 3.331V1.07973C417.446 1.03148 417.479 0.991018 417.521 0.991018C419.166 1.08845 420.311 1.62917 420.924 2.59667C422.17 4.56341 421.122 7.93127 420.386 9.76384C420.137 10.3833 420.166 10.9695 420.467 11.4143C420.759 11.8467 421.268 12.0842 421.903 12.0842H426.085C427.688 12.0842 428.01 12.7348 428.01 13.7851C428.009 14.5609 427.754 15.4854 426.535 15.4854Z" fill="#303C42"/>
<path d="M427.277 53.7397L420.491 52.7818C420.181 52.7377 419.758 52.4391 419.62 52.1668L416.584 46.1936C416.057 45.1549 415.365 44.9999 415 44.9999C414.635 44.9999 413.944 45.1549 413.416 46.1932L410.38 52.1668C410.242 52.4391 409.819 52.738 409.509 52.7818L402.723 53.7397C401.543 53.9062 401.177 54.497 401.064 54.8342C400.952 55.1715 400.89 55.8577 401.744 56.6658L406.655 61.3164C406.879 61.5279 407.04 62.0114 406.987 62.3112L405.828 68.8771C405.673 69.7579 405.92 70.2656 406.154 70.5358C406.627 71.0806 407.483 71.1492 408.391 70.6853L414.462 67.5855C414.723 67.4517 415.277 67.4517 415.539 67.5855L421.609 70.6853C422.018 70.8938 422.407 70.9999 422.765 70.9999C423.202 70.9999 423.586 70.8352 423.846 70.5358C424.081 70.2653 424.328 69.7582 424.172 68.8771L423.013 62.3109C422.96 62.0114 423.122 61.5279 423.345 61.3161L428.256 56.6658C429.11 55.8577 429.048 55.1712 428.936 54.8342C428.823 54.497 428.457 53.9062 427.277 53.7397ZM427.565 55.9768L422.654 60.6274C422.193 61.0632 421.928 61.857 422.037 62.4738L423.196 69.0393C423.266 69.437 423.227 69.7564 423.089 69.9157C423.062 69.9462 422.982 70.0381 422.765 70.0381C422.631 70.0381 422.401 70.003 422.071 69.8338L416 66.7334C415.726 66.5938 415.371 66.5164 415 66.5164C414.63 66.5164 414.275 66.5938 414.001 66.7334L407.931 69.8338C407.6 70.003 407.37 70.0381 407.236 70.0381C407.019 70.0381 406.938 69.9459 406.912 69.9157C406.774 69.7564 406.735 69.437 406.805 69.039L407.964 62.4738C408.073 61.857 407.807 61.0632 407.347 60.6274L402.435 55.9768C402.097 55.6568 401.936 55.341 402.006 55.1313C402.077 54.9222 402.397 54.7581 402.865 54.6919L409.651 53.7337C410.288 53.6436 410.984 53.1532 411.269 52.5929L414.304 46.6193C414.513 46.2078 414.773 45.9618 415 45.9618C415.226 45.9618 415.487 46.2074 415.696 46.6193L418.731 52.5929C419.015 53.1532 419.711 53.6439 420.348 53.7337L427.134 54.6919C427.602 54.7581 427.923 54.9222 427.993 55.1313C428.063 55.3404 427.903 55.6568 427.565 55.9768Z" fill="#303C42"/>
<path d="M413.504 104C413.504 106.065 415.072 107.746 417 107.746C418.928 107.746 420.496 106.065 420.496 104C420.496 101.935 418.928 100.254 417 100.254C415.072 100.254 413.504 101.935 413.504 104ZM419.506 104C419.506 105.48 418.382 106.685 417 106.685C415.619 106.685 414.494 105.48 414.494 104C414.494 102.52 415.618 101.315 417 101.315C418.382 101.315 419.506 102.52 419.506 104Z" fill="#303C42"/>
<path d="M409.993 104C409.993 101.935 408.424 100.254 406.497 100.254C404.569 100.254 403 101.935 403 104C403 106.065 404.569 107.746 406.496 107.746C408.424 107.746 409.993 106.065 409.993 104ZM406.496 106.685C405.115 106.685 403.99 105.48 403.99 104C403.99 102.52 405.114 101.315 406.496 101.315C407.878 101.315 409.002 102.519 409.002 104C409.002 105.48 407.878 106.685 406.496 106.685Z" fill="#303C42"/>
<path d="M427.504 100.254C425.576 100.254 424.008 101.935 424.008 104C424.008 106.065 425.576 107.746 427.504 107.746C429.431 107.746 431 106.065 431 104C431 101.935 429.431 100.254 427.504 100.254ZM427.504 106.685C426.122 106.685 424.998 105.48 424.998 104C424.998 102.52 426.122 101.315 427.504 101.315C428.886 101.315 430.01 102.519 430.01 104C430.009 105.48 428.886 106.685 427.504 106.685Z" fill="#303C42"/>
<path d="M8.68396 187.926C8.94381 187.779 9.03259 187.455 8.88201 187.201C8.73245 186.947 8.39952 186.861 8.13967 187.008C6.05811 188.183 4.32142 189.878 3.11708 191.911C1.91581 193.937 1.28103 196.253 1.28103 198.608C1.28103 205.992 7.43557 212 15 212C22.5644 212 28.719 205.992 28.719 198.608C28.719 196.253 28.0842 193.937 26.8829 191.911C25.6789 189.879 23.9423 188.183 21.8603 187.008C21.6012 186.861 21.2683 186.947 21.118 187.201C20.9674 187.455 21.0562 187.779 21.3161 187.926C23.2334 189.009 24.8335 190.571 25.9419 192.442C27.0475 194.307 27.6318 196.439 27.6318 198.608C27.6318 205.407 21.9652 210.939 15 210.939C8.03484 210.939 2.36825 205.407 2.36825 198.608C2.36825 196.439 2.9525 194.307 4.05816 192.442C5.16689 190.571 6.76698 189.008 8.68396 187.926Z" fill="#303C42"/>
<path d="M14.4564 182.531V198.608C14.4564 198.9 14.6999 199.138 15 199.138C15.3002 199.138 15.5437 198.9 15.5437 198.608V182.531C15.5437 182.237 15.3002 182 15 182C14.6999 182 14.4564 182.237 14.4564 182.531Z" fill="#303C42"/>
<path d="M62.7472 183H58.9958C57.8954 183 57 183.896 57 184.996V188.747C57 189.847 57.8954 190.743 58.9958 190.743H62.7472C63.8476 190.743 64.7426 189.847 64.7426 188.747V184.996C64.7426 183.896 63.8476 183 62.7472 183ZM63.752 188.747C63.752 189.301 63.3009 189.752 62.7472 189.752H58.9958C58.4414 189.752 57.9906 189.301 57.9906 188.747V184.996C57.9906 184.441 58.4414 183.99 58.9958 183.99H62.7472C63.3009 183.99 63.752 184.441 63.752 184.996V188.747Z" fill="#303C42"/>
<path d="M83.0042 183H79.2528C78.1524 183 77.257 183.896 77.257 184.996V188.747C77.257 189.847 78.1524 190.743 79.2528 190.743H83.0042C84.1046 190.743 85 189.847 85 188.747V184.996C85 183.896 84.1046 183 83.0042 183ZM84.0094 188.747C84.0094 189.301 83.5586 189.752 83.0042 189.752H79.2528C78.6987 189.752 78.2479 189.301 78.2479 188.747V184.996C78.2479 184.441 78.6987 183.99 79.2528 183.99H83.0042C83.5586 183.99 84.0094 184.441 84.0094 184.996V188.747Z" fill="#303C42"/>
<path d="M72.8753 183H69.1245C68.0245 183 67.1291 183.896 67.1291 184.996V188.747C67.1291 189.847 68.0245 190.743 69.1245 190.743H72.8756C73.976 190.743 74.8714 189.847 74.8714 188.747V184.996C74.8711 183.896 73.9757 183 72.8753 183ZM73.8808 188.747C73.8808 189.301 73.4303 189.752 72.8756 189.752H69.1245C68.5701 189.752 68.1193 189.301 68.1193 188.747V184.996C68.1193 184.441 68.5701 183.99 69.1245 183.99H72.8756C73.4303 183.99 73.8808 184.441 73.8808 184.996V188.747Z" fill="#303C42"/>
<path d="M62.7472 203.257H58.9958C57.8954 203.257 57 204.152 57 205.252V209.004C57 210.104 57.8954 211 58.9958 211H62.7472C63.8476 211 64.7426 210.104 64.7426 209.004V205.252C64.7426 204.152 63.8476 203.257 62.7472 203.257ZM63.752 209.004C63.752 209.558 63.3009 210.009 62.7472 210.009H58.9958C58.4414 210.009 57.9906 209.558 57.9906 209.004V205.252C57.9906 204.698 58.4414 204.248 58.9958 204.248H62.7472C63.3009 204.248 63.752 204.698 63.752 205.252V209.004Z" fill="#303C42"/>
<path d="M83.0042 203.257H79.2528C78.1524 203.257 77.257 204.152 77.257 205.252V209.004C77.257 210.104 78.1524 211 79.2528 211H83.0042C84.1046 211 85 210.104 85 209.004V205.252C85 204.152 84.1046 203.257 83.0042 203.257ZM84.0094 209.004C84.0094 209.558 83.5586 210.009 83.0042 210.009H79.2528C78.6987 210.009 78.2479 209.558 78.2479 209.004V205.252C78.2479 204.698 78.6987 204.248 79.2528 204.248H83.0042C83.5586 204.248 84.0094 204.698 84.0094 205.252V209.004Z" fill="#303C42"/>
<path d="M72.8753 203.257H69.1245C68.0245 203.257 67.1291 204.152 67.1291 205.252V209.004C67.1291 210.104 68.0245 211 69.1245 211H72.8756C73.976 211 74.8714 210.104 74.8714 209.004V205.252C74.8711 204.152 73.9757 203.257 72.8753 203.257ZM73.8808 209.004C73.8808 209.558 73.4303 210.009 72.8756 210.009H69.1245C68.5701 210.009 68.1193 209.558 68.1193 209.004V205.252C68.1193 204.698 68.5701 204.248 69.1245 204.248H72.8756C73.4303 204.248 73.8808 204.698 73.8808 205.252V209.004Z" fill="#303C42"/>
<path d="M62.7472 193.129H58.9958C57.8954 193.129 57 194.025 57 195.125V198.876C57 199.976 57.8954 200.871 58.9958 200.871H62.7472C63.8476 200.871 64.7426 199.976 64.7426 198.876V195.125C64.7426 194.025 63.8476 193.129 62.7472 193.129ZM63.752 198.875C63.752 199.43 63.3009 199.881 62.7472 199.881H58.9958C58.4414 199.881 57.9906 199.43 57.9906 198.875V195.125C57.9906 194.57 58.4414 194.119 58.9958 194.119H62.7472C63.3009 194.119 63.752 194.57 63.752 195.125V198.875Z" fill="#303C42"/>
<path d="M83.0042 193.129H79.2528C78.1524 193.129 77.257 194.025 77.257 195.125V198.876C77.257 199.976 78.1524 200.871 79.2528 200.871H83.0042C84.1046 200.871 85 199.976 85 198.876V195.125C85 194.025 84.1046 193.129 83.0042 193.129ZM84.0094 198.875C84.0094 199.43 83.5586 199.881 83.0042 199.881H79.2528C78.6987 199.881 78.2479 199.43 78.2479 198.875V195.125C78.2479 194.57 78.6987 194.119 79.2528 194.119H83.0042C83.5586 194.119 84.0094 194.57 84.0094 195.125V198.875Z" fill="#303C42"/>
<path d="M72.8753 193.129H69.1245C68.0245 193.129 67.1291 194.025 67.1291 195.125V198.876C67.1291 199.976 68.0245 200.871 69.1245 200.871H72.8756C73.976 200.871 74.8714 199.976 74.8714 198.876V195.125C74.8711 194.025 73.9757 193.129 72.8753 193.129ZM73.8808 198.875C73.8808 199.43 73.4303 199.881 72.8756 199.881H69.1245C68.5701 199.881 68.1193 199.43 68.1193 198.875V195.125C68.1193 194.57 68.5701 194.119 69.1245 194.119H72.8756C73.4303 194.119 73.8808 194.57 73.8808 195.125V198.875Z" fill="#303C42"/>
<path d="M199.098 54.3955L187.725 45.5599C187.261 45.1991 186.648 44.9999 186 44.9999C185.352 44.9999 184.739 45.1991 184.275 45.5599L172.902 54.3955C172.388 54.7948 172 55.5869 172 56.2374V57.4363C172 58.2052 172.626 58.8305 173.396 58.8305H175.346C175.57 58.8305 175.751 59.0119 175.751 59.2348V67.5075C175.751 69.433 177.32 70.9999 179.248 70.9999H192.752C194.68 70.9999 196.249 69.433 196.249 67.5075V59.2348C196.249 59.0119 196.43 58.8305 196.654 58.8305H198.604C199.374 58.8305 200 58.2049 200 57.4363V56.2374C200 55.5869 199.612 54.7948 199.098 54.3955ZM188.956 70.0104H183.044V64.2102C183.044 62.5818 184.37 61.2576 186 61.2576C187.63 61.2576 188.956 62.5818 188.956 64.2102V70.0104ZM199.009 57.4366C199.009 57.6598 198.828 57.8416 198.604 57.8416H196.653C195.884 57.8416 195.258 58.4666 195.258 59.2351V67.5078C195.258 68.8876 194.134 70.0107 192.752 70.0107H189.946V64.2102C189.946 62.0364 188.176 60.2678 185.999 60.2678C183.823 60.2678 182.053 62.036 182.053 64.2102V70.0104H179.247C177.866 70.0104 176.741 68.8876 176.741 67.5075V59.2348C176.741 58.4659 176.115 57.8413 175.346 57.8413H173.395C173.172 57.8413 172.99 57.6595 172.99 57.4363V56.2374C172.99 55.8931 173.237 55.3877 173.51 55.1764L184.882 46.3406C185.17 46.1174 185.577 45.9894 186 45.9894C186.422 45.9894 186.83 46.1174 187.117 46.3406L198.49 55.1764C198.761 55.3877 199.009 55.8931 199.009 56.2374V57.4366Z" fill="#303C42"/>
<path d="M126 207.248C126.278 207.248 126.503 207.026 126.503 206.753V194.749C126.503 194.476 126.278 194.254 126 194.254C125.722 194.254 125.497 194.476 125.497 194.749V206.753C125.497 207.027 125.722 207.248 126 207.248Z" fill="#303C42"/>
<path d="M129.808 183H122.192C121.075 183 120.167 183.895 120.167 184.996V186.751H116.1C114.983 186.751 114.074 187.647 114.074 188.747V189.497C114.074 190.598 114.983 191.493 116.1 191.493H116.385L117.269 207.654C117.369 209.499 118.977 211 120.852 211H131.148C133.024 211 134.631 209.499 134.731 207.654L135.615 191.493H135.9C137.017 191.493 137.926 190.598 137.926 189.497V188.747C137.926 187.647 137.017 186.751 135.9 186.751H131.834V184.996C131.834 183.895 130.925 183 129.808 183ZM121.172 184.996C121.172 184.441 121.63 183.99 122.192 183.99H129.808C130.37 183.99 130.828 184.441 130.828 184.996V186.751H121.172V184.996ZM133.728 207.601C133.655 208.929 132.498 210.009 131.148 210.009H120.852C119.502 210.009 118.345 208.929 118.273 207.601L117.392 191.493H134.608L133.728 207.601ZM135.9 187.742C136.463 187.742 136.92 188.192 136.92 188.747V189.497C136.92 190.052 136.463 190.502 135.9 190.502H116.1C115.537 190.502 115.08 190.052 115.08 189.497V188.747C115.08 188.192 115.537 187.742 116.1 187.742H135.9Z" fill="#303C42"/>
<path d="M121.861 207.248C121.866 207.248 121.87 207.248 121.875 207.248C122.152 207.241 122.371 207.013 122.364 206.739L122.036 194.735C122.029 194.466 121.805 194.253 121.534 194.253C121.529 194.253 121.524 194.253 121.52 194.253C121.243 194.261 121.024 194.489 121.031 194.762L121.359 206.766C121.366 207.035 121.59 207.248 121.861 207.248Z" fill="#303C42"/>
<path d="M130.125 207.248C130.13 207.248 130.134 207.248 130.139 207.248C130.41 207.248 130.634 207.035 130.641 206.766L130.969 194.762C130.977 194.489 130.758 194.261 130.481 194.253C130.476 194.253 130.471 194.253 130.467 194.253C130.195 194.253 129.972 194.466 129.964 194.735L129.636 206.739C129.629 207.013 129.848 207.241 130.125 207.248Z" fill="#303C42"/>
<path d="M74.7003 57.9999L79.7466 52.9537C79.9394 52.7602 79.9398 52.4469 79.7466 52.2537C79.5524 52.0602 79.2394 52.0602 79.0459 52.2537L74 57.2996L68.9538 52.2537C68.7612 52.0602 68.447 52.0602 68.2538 52.2537C68.0603 52.4469 68.0603 52.7602 68.2538 52.9537L73.2997 57.9999L68.2541 63.0455C68.0606 63.239 68.0606 63.5523 68.2541 63.7462C68.3509 63.8426 68.4775 63.8914 68.6041 63.8911C68.731 63.8914 68.8577 63.8426 68.9541 63.7462L74 58.7002L79.0459 63.7462C79.1427 63.8426 79.2696 63.8914 79.3962 63.8914C79.5226 63.8914 79.6495 63.8426 79.7466 63.7462C79.9398 63.5523 79.9397 63.239 79.7462 63.0455L74.7003 57.9999Z" fill="#303C42"/>
<path d="M74 43.9999C66.2807 43.9999 60 50.2806 60 57.9999C60 65.7195 66.2807 71.9999 74 71.9999C81.7196 71.9999 88 65.7192 88 57.9999C88 50.2806 81.7196 43.9999 74 43.9999ZM74 71.0093C66.8267 71.0093 60.9906 65.1732 60.9906 57.9999C60.9906 50.826 66.8264 44.9902 74 44.9902C81.1736 44.9902 87.0094 50.8263 87.0094 58.0002C87.0094 65.1732 81.1736 71.0093 74 71.0093Z" fill="#303C42"/>
<path d="M130 43.9999C122.281 43.9999 116 50.2806 116 57.9993C116 65.7195 122.281 71.9999 130 71.9999C137.719 71.9999 144 65.7192 144 57.9993C144 50.2806 137.72 43.9999 130 43.9999ZM130 71.0093C122.826 71.0093 116.991 65.1729 116.991 57.9993C116.991 50.826 122.826 44.9905 130 44.9905C137.174 44.9905 143.009 50.8263 143.009 57.9993C143.009 65.1732 137.174 71.0093 130 71.0093Z" fill="#303C42"/>
<path d="M136.045 52.3303C135.814 52.1822 135.508 52.2491 135.361 52.479L129.42 61.7221C129.29 61.9225 129.121 62.0401 128.942 62.0525C128.762 62.0637 128.58 61.9719 128.424 61.7899L124.899 57.6777C124.721 57.4708 124.409 57.4462 124.201 57.6242C123.993 57.8018 123.969 58.1148 124.147 58.3223L127.672 62.4349C128.007 62.825 128.454 63.0437 128.911 63.0437C128.944 63.0437 128.977 63.0428 129.01 63.04C129.502 63.0061 129.954 62.7208 130.252 62.2569L136.193 53.0147C136.342 52.7845 136.275 52.4784 136.045 52.3303Z" fill="#303C42"/>
<path d="M25.6534 93.0795L1.64559 114.301L2.34581 114.92L26.3536 93.6984L25.6534 93.0795Z" fill="#303C42"/>
<path d="M23.8846 98.0408C23.7184 97.9055 23.5308 97.76 23.3295 97.6096L22.614 98.2421C25.2979 100.238 27.0094 102.697 27.0094 104C27.0094 106.423 21.1004 112.846 13.9999 112.846C11.7876 112.846 9.6926 112.221 7.85455 111.288L7.11846 111.938C8.94904 112.9 11.2992 113.722 13.9999 113.722C18.5786 113.722 22.1585 111.364 23.8846 109.958C26.3078 107.986 27.9999 105.536 27.9999 104C27.9999 102.464 26.3078 100.013 23.8846 98.0408Z" fill="#303C42"/>
<path d="M4.11538 109.959C4.2812 110.094 4.46911 110.24 4.67009 110.389L5.38596 109.757C2.702 107.761 0.990578 105.303 0.990578 104C0.990578 101.576 6.89951 95.153 14 95.153C16.2123 95.153 18.3073 95.7786 20.1454 96.7109L20.8812 96.0608C19.0509 95.0988 16.7011 94.2777 14 94.2777C9.42138 94.2777 5.84142 96.6355 4.11538 98.0408C1.69213 100.013 0 102.464 0 104C0 105.536 1.69213 107.986 4.11538 109.959Z" fill="#303C42"/>
<path d="M14.0001 108.204C13.2295 108.204 12.504 108.038 11.86 107.748L11.1304 108.394C11.9754 108.828 12.9538 109.08 14.0001 109.08C17.1694 109.08 19.7476 106.801 19.7476 104C19.7476 103.075 19.462 102.211 18.9707 101.463L18.2408 102.109C18.5684 102.677 18.7564 103.319 18.7564 104C18.7564 106.318 16.6231 108.204 14.0001 108.204Z" fill="#303C42"/>
<path d="M14.0001 99.7951C14.7707 99.7951 15.4962 99.9618 16.1402 100.251L16.8698 99.6056C16.0245 99.172 15.0463 98.9198 14.0001 98.9198C10.8308 98.9198 8.25262 101.198 8.25262 104C8.25262 104.924 8.53822 105.789 9.02915 106.536L9.75933 105.891C9.43173 105.322 9.24382 104.68 9.24382 104C9.24382 101.682 11.3768 99.7951 14.0001 99.7951Z" fill="#303C42"/>
<path d="M82.8846 97.9802C81.1586 96.5613 77.5786 94.1794 73 94.1794C68.4214 94.1794 64.8414 96.561 63.1154 97.9802C60.6921 99.9732 59 102.448 59 104C59 105.552 60.6921 108.027 63.1154 110.019C64.8414 111.439 68.4214 113.82 73 113.82C77.5786 113.82 81.1586 111.439 82.8846 110.019C85.3079 108.027 87 105.552 87 104C87 102.448 85.3079 99.9732 82.8846 97.9802ZM73 112.936C65.8995 112.936 59.9906 106.448 59.9906 104C59.9906 101.552 65.8995 95.0635 73 95.0635C80.1005 95.0635 86.0094 101.552 86.0094 104C86.0094 106.448 80.1005 112.936 73 112.936Z" fill="#303C42"/>
<path d="M73.0001 98.8683C69.8308 98.8683 67.2526 101.17 67.2526 104C67.2526 106.829 69.8308 109.132 73.0001 109.132C76.1694 109.132 78.7476 106.829 78.7476 104C78.7476 101.17 76.1694 98.8683 73.0001 98.8683ZM73.0001 108.247C70.3768 108.247 68.2438 106.342 68.2438 104C68.2438 101.658 70.3768 99.7531 73.0001 99.7531C75.6231 99.7531 77.7563 101.658 77.7563 104C77.7563 106.342 75.6231 108.247 73.0001 108.247Z" fill="#303C42"/>
<path d="M27.4867 48.1665H0.513333C0.2296 48.1665 0 48.3715 0 48.6249C0 48.8782 0.2296 49.0829 0.513333 49.0829H27.4867C27.7704 49.0829 28 48.8779 28 48.6249C28 48.3718 27.7704 48.1665 27.4867 48.1665Z" fill="#303C42"/>
<path d="M0.513333 55.3329H20.4867C20.7704 55.3329 21 55.1279 21 54.8749C21 54.6218 20.7704 54.4165 20.4867 54.4165H0.513333C0.2296 54.4165 0 54.6215 0 54.8749C0 55.1282 0.2296 55.3329 0.513333 55.3329Z" fill="#303C42"/>
<path d="M27.4867 60.6665H0.513333C0.2296 60.6665 0 60.8715 0 61.1249C0 61.3779 0.2296 61.5832 0.513333 61.5832H27.4867C27.7704 61.5832 28 61.3779 28 61.1249C28 60.8715 27.7704 60.6665 27.4867 60.6665Z" fill="#303C42"/>
<path d="M20.4867 67.8332C20.7704 67.8332 21 67.6279 21 67.3746C21 67.1212 20.7704 66.9162 20.4867 66.9162H0.513333C0.2296 66.9162 0 67.1212 0 67.3746C0 67.6279 0.2296 67.8332 0.513333 67.8332H20.4867Z" fill="#303C42"/>
<path d="M358 89.9999C350.281 89.9999 344 96.2806 344 104C344 111.72 350.281 118 358 118C365.719 118 372 111.719 372 104C372 96.2806 365.72 89.9999 358 89.9999ZM358 117.009C350.826 117.009 344.991 111.174 344.991 104C344.991 96.8263 350.826 90.9905 358 90.9905C365.174 90.9905 371.009 96.8263 371.009 104C371.009 111.174 365.174 117.009 358 117.009Z" fill="#303C42"/>
<path d="M356.275 97.6977C356.081 97.5042 355.767 97.5042 355.574 97.6977C355.381 97.8912 355.381 98.2045 355.574 98.3983L361.07 103.894C361.128 103.952 361.128 104.047 361.07 104.106L355.574 109.602C355.381 109.795 355.381 110.109 355.574 110.302C355.767 110.496 356.081 110.496 356.275 110.302L362.014 104.562C362.324 104.252 362.324 103.748 362.014 103.437L356.275 97.6977Z" fill="#303C42"/>
<path d="M184.275 97.6977C184.081 97.5042 183.767 97.5042 183.574 97.6977C183.381 97.8912 183.381 98.2045 183.574 98.3983L189.07 103.894C189.128 103.952 189.128 104.047 189.07 104.106L183.574 109.602C183.381 109.795 183.381 110.109 183.574 110.302C183.767 110.496 184.081 110.496 184.275 110.302L190.014 104.562C190.324 104.252 190.324 103.748 190.014 103.437L184.275 97.6977Z" fill="#303C42"/>
<path d="M136.21 91.9999C134.358 91.9999 132.49 92.7139 131.084 93.9588C129.851 95.0509 129.078 96.8854 129.036 96.9868C129.024 97.0216 129.012 97.0522 129 97.0795C128.986 97.0464 128.97 97.0079 128.954 96.9629C128.922 96.8854 128.149 95.0509 126.916 93.9588C125.51 92.7139 123.642 91.9999 121.791 91.9999C118.884 91.9999 116.308 93.9604 115.382 96.8783C113.744 102.041 117.43 108.391 125.243 113.866C126.3 114.607 128.151 115.748 128.229 115.797C128.442 115.928 128.716 116 129 116C129.284 116 129.558 115.928 129.77 115.797C129.849 115.748 131.699 114.607 132.757 113.866C140.569 108.391 144.256 102.041 142.618 96.8783C141.692 93.9604 139.117 91.9999 136.21 91.9999ZM132.188 113.058C131.154 113.783 129.269 114.946 129.25 114.957C129.206 114.984 129.118 115.013 129 115.013C128.883 115.013 128.794 114.984 128.75 114.957C128.732 114.946 126.846 113.783 125.813 113.058C118.372 107.844 114.826 101.907 116.327 97.1757C117.122 94.67 119.318 92.9865 121.791 92.9865C123.404 92.9865 125.032 93.6096 126.259 94.6964C127.318 95.634 128.03 97.3174 128.031 97.3174C128.314 98.1083 128.76 98.2265 129 98.2265C129.241 98.2265 129.687 98.1083 129.96 97.3413C129.967 97.3246 130.677 95.6398 131.742 94.6967C132.969 93.6099 134.598 92.9868 136.21 92.9868C138.683 92.9868 140.879 94.6703 141.674 97.176C143.175 101.907 139.628 107.845 132.188 113.058Z" fill="#303C42"/>
<path d="M3.25482 156.817C3.64401 157.16 3.86551 157.775 3.80422 158.095L2.89641 162.799C2.7673 163.466 3.06409 163.76 3.25231 163.876C3.34782 163.935 3.49871 164 3.70217 164C3.89973 164 4.14675 163.939 4.4395 163.752L9.1752 160.729C9.47324 160.539 10.0653 160.433 10.4168 160.504C10.4983 160.521 12.4396 160.921 14.0002 160.921C21.7197 160.921 28 155.78 28 149.461C27.9997 143.141 21.7194 138 13.9998 138C6.28033 138 0 143.141 0 149.461C0 151.873 0.904072 154.179 2.61516 156.133C3.05538 156.635 3.22464 156.791 3.25482 156.817ZM13.9998 138.936C21.1734 138.936 27.0091 143.658 27.0091 149.461C27.0091 155.264 21.1734 159.984 13.9998 159.984C12.5485 159.984 10.6486 159.594 10.629 159.59C10.0093 159.461 9.14595 159.618 8.62017 159.953L3.88541 162.976C3.87888 162.98 3.87266 162.984 3.86582 162.988C3.86706 162.981 3.86863 162.974 3.87019 162.967L4.778 158.262C4.90773 157.589 4.54373 156.673 3.93334 156.135C3.93179 156.134 3.78057 155.995 3.378 155.536C1.81593 153.752 0.990262 151.652 0.990262 149.461C0.990573 143.658 6.82633 138.936 13.9998 138.936Z" fill="#303C42"/>
<path d="M185 145.79C181.252 145.79 178.203 148.554 178.203 151.952C178.203 155.35 181.252 158.115 185 158.115C188.748 158.115 191.798 155.35 191.798 151.952C191.798 148.554 188.748 145.79 185 145.79ZM185 157.217C181.798 157.217 179.193 154.855 179.193 151.952C179.193 149.049 181.798 146.687 185 146.687C188.202 146.687 190.807 149.049 190.807 151.952C190.807 154.855 188.202 157.217 185 157.217Z" fill="#303C42"/>
<path d="M194.904 143.885L193.345 143.885C192.763 143.885 192.08 143.45 191.883 142.953L191.347 141.602C191.007 140.746 189.956 140.076 188.953 140.076H181.047C180.043 140.076 178.992 140.746 178.653 141.602L178.117 142.953C177.92 143.45 177.237 143.885 176.656 143.885L175.096 143.885C172.837 143.885 171 145.551 171 147.599V158.21C171 160.258 172.837 161.924 175.096 161.924H194.904C197.162 161.924 199 160.257 199 158.21V147.599C199 145.551 197.162 143.885 194.904 143.885ZM198.009 158.21C198.009 159.763 196.616 161.026 194.904 161.026H175.096C173.384 161.026 171.991 159.763 171.991 158.21V147.599C171.991 146.046 173.384 144.783 175.096 144.783L176.655 144.783C177.658 144.783 178.71 144.113 179.049 143.257L179.585 141.906C179.782 141.41 180.465 140.974 181.047 140.974H188.953C189.535 140.974 190.218 141.41 190.415 141.906L190.951 143.258C191.29 144.113 192.342 144.784 193.345 144.784L194.904 144.783C196.616 144.783 198.009 146.047 198.009 147.599V158.21Z" fill="#303C42"/>
<path d="M59 158.773V159.927C59 160.929 59.8429 161.744 60.879 161.744L66.6202 161.743C66.6313 161.746 66.655 161.769 66.6595 161.792C67.1578 164.23 69.4038 166 72 166C74.5962 166 76.8422 164.23 77.3401 161.792C77.345 161.77 77.3683 161.746 77.3711 161.744H83.1767C84.1825 161.744 85 160.929 85 159.927V158.773C85 158.08 84.5714 157.247 84.1481 156.783C83.7069 156.3 83.0816 155.48 82.6029 154.321C82.1291 153.173 81.8892 151.912 81.8892 150.574C81.8892 146.684 79.3911 143.188 75.6358 141.767C75.9471 141.204 76.1101 140.577 76.1101 139.935C76.1101 137.765 74.2665 136 72 136C69.7335 136 67.8899 137.765 67.8899 139.935C67.8899 140.577 68.0532 141.204 68.3641 141.768C64.6092 143.188 62.1108 146.684 62.1108 150.574C62.1108 151.913 61.8713 153.174 61.3971 154.322C60.9184 155.481 60.2927 156.3 59.8519 156.783C59.4289 157.247 59 158.08 59 158.773ZM60.1086 158.773C60.1086 158.417 60.3739 157.824 60.6875 157.48C61.1851 156.934 61.8918 156.011 62.428 154.711C62.9534 153.438 63.2197 152.047 63.2197 150.574C63.2197 147.015 65.5736 143.829 69.0765 142.645C69.3192 142.563 69.5033 142.391 69.5803 142.172C69.6597 141.951 69.6224 141.704 69.48 141.493C69.1649 141.028 68.9982 140.489 68.9982 139.935C68.9982 138.35 70.3445 137.061 71.9997 137.061C73.6548 137.061 75.0012 138.35 75.0012 139.935C75.0012 140.489 74.8344 141.027 74.5193 141.493C74.3769 141.704 74.3396 141.951 74.419 142.172C74.4963 142.391 74.6801 142.563 74.9225 142.645C78.426 143.829 80.7796 147.015 80.7796 150.574C80.7796 152.047 81.0463 153.438 81.5713 154.711C82.1075 156.011 82.8143 156.934 83.3118 157.48C83.6255 157.824 83.8908 158.417 83.8908 158.773V159.927C83.8908 160.344 83.5701 160.683 83.1756 160.683H77.3711C76.8384 160.683 76.3576 161.073 76.2524 161.589C75.8559 163.53 74.0674 164.939 72 164.939C69.9326 164.939 68.1441 163.53 67.7476 161.59C67.6424 161.073 67.1616 160.683 66.6289 160.683H60.8794C60.4543 160.683 60.1086 160.344 60.1086 159.927V158.773Z" fill="#303C42"/>
<path d="M115.847 168H140.153C140.439 168 140.672 167.73 140.672 167.399C140.672 167.066 140.439 166.797 140.153 166.797H115.847C115.561 166.797 115.329 167.066 115.329 167.399C115.329 167.73 115.561 168 115.847 168Z" fill="#303C42"/>
<path d="M119.388 147.222C119.494 147.222 119.602 147.185 119.694 147.106L131.61 136.971L130.904 142.46C130.862 142.789 131.057 143.094 131.34 143.144C131.366 143.148 131.392 143.15 131.418 143.15C131.67 143.15 131.891 142.936 131.929 142.638L132.772 136.082C132.805 135.827 132.75 135.573 132.618 135.365C132.485 135.157 132.291 135.022 132.072 134.984L126.42 134.007C126.138 133.958 125.873 134.185 125.831 134.513C125.788 134.842 125.983 135.148 126.267 135.196L130.983 136.012L119.08 146.137C118.85 146.333 118.8 146.709 118.969 146.977C119.071 147.137 119.228 147.222 119.388 147.222Z" fill="#303C42"/>
<path d="M135.333 164.171H137.682C138.66 164.171 139.457 163.247 139.457 162.112V145.481C139.457 144.346 138.66 143.422 137.682 143.422H135.333C134.354 143.422 133.558 144.345 133.558 145.481V162.112C133.558 163.247 134.354 164.171 135.333 164.171ZM134.594 145.481C134.594 145.009 134.926 144.625 135.333 144.625H137.682C138.088 144.625 138.42 145.009 138.42 145.481V162.112C138.42 162.583 138.088 162.968 137.682 162.968H135.333C134.927 162.968 134.595 162.583 134.595 162.112L134.594 145.481Z" fill="#303C42"/>
<path d="M129.174 149.061H126.826C125.848 149.061 125.051 149.985 125.051 151.12V162.112C125.051 163.247 125.848 164.171 126.826 164.171H129.174C130.153 164.171 130.949 163.247 130.949 162.112V151.12C130.949 149.985 130.153 149.061 129.174 149.061ZM129.912 162.112C129.912 162.583 129.581 162.968 129.174 162.968H126.826C126.419 162.968 126.088 162.583 126.088 162.112V151.12C126.088 150.648 126.419 150.264 126.826 150.264H129.174C129.581 150.264 129.912 150.648 129.912 151.12V162.112Z" fill="#303C42"/>
<path d="M118.319 164.171H120.667C121.646 164.171 122.442 163.247 122.442 162.112V156.758C122.442 155.622 121.646 154.699 120.667 154.699H118.319C117.34 154.699 116.544 155.622 116.544 156.758V162.112C116.544 163.247 117.34 164.171 118.319 164.171ZM117.58 156.758C117.58 156.286 117.912 155.902 118.319 155.902H120.667C121.074 155.902 121.405 156.286 121.405 156.758V162.112C121.405 162.583 121.074 162.968 120.667 162.968H118.319C117.912 162.968 117.58 162.583 117.58 162.112V156.758Z" fill="#303C42"/>
<path d="M250.222 27.9737H231.284C231.004 27.9737 230.778 28.2031 230.778 28.4866C230.778 28.7702 231.004 28.9999 231.284 28.9999H250.222C250.502 28.9999 250.729 28.7702 250.729 28.4866C250.729 28.2031 250.502 27.9737 250.222 27.9737Z" fill="#303C42"/>
<path d="M231.498 24.8363L234.83 23.2665C235.523 22.9404 236.41 22.1877 236.848 21.5532L248.15 5.20752C249.184 3.71241 248.824 1.64407 247.348 0.596847C245.871 -0.450375 243.829 -0.0852973 242.795 1.40981L231.493 17.7558C231.054 18.3896 230.659 19.491 230.593 20.2624L230.276 23.9702C230.246 24.3205 230.37 24.6211 230.616 24.7951C230.749 24.8898 230.905 24.9375 231.07 24.9375C231.209 24.9378 231.498 24.8363 231.498 24.8363ZM243.624 1.99851C244.338 0.966758 245.746 0.714136 246.766 1.4372C247.785 2.15995 248.033 3.58771 247.32 4.61947L245.211 7.6693L241.515 5.04835L243.624 1.99851ZM240.935 5.88838L244.63 8.50901L237.167 19.3028L233.471 16.6825L240.935 5.88838ZM231.602 20.3513C231.652 19.7642 231.989 18.8262 232.323 18.3442L232.89 17.5229L236.587 20.1432L236.018 20.9652C235.685 21.4472 234.93 22.0881 234.402 22.3365L231.307 23.7946L231.602 20.3513Z" fill="#303C42"/>
<path d="M256.505 152.314C256.231 152.314 256.009 152.535 256.009 152.809V161.317C256.009 162.698 254.886 163.823 253.503 163.823H232.496C231.115 163.823 229.99 162.698 229.99 161.317V152.809C229.99 152.535 229.768 152.313 229.495 152.313C229.222 152.313 229 152.535 229 152.809V161.317C229 163.244 230.569 164.813 232.496 164.813H253.503C255.431 164.813 257 163.244 257 161.317V152.809C257 152.535 256.778 152.314 256.505 152.314Z" fill="#303C42"/>
<path d="M234.697 146.311L242.505 138.504V156.77C242.505 157.044 242.727 157.265 243 157.265C243.274 157.265 243.495 157.044 243.495 156.77V138.504L251.303 146.311C251.496 146.505 251.81 146.505 252.003 146.311C252.196 146.118 252.196 145.805 252.003 145.611L243.987 137.595C243.443 137.05 242.557 137.051 242.014 137.595L233.997 145.612C233.804 145.805 233.804 146.118 233.997 146.312C234.19 146.505 234.504 146.505 234.697 146.311Z" fill="#303C42"/>
<path d="M312.505 152.314C312.231 152.314 312.009 152.535 312.009 152.809V161.317C312.009 162.698 310.886 163.823 309.503 163.823H288.496C287.115 163.823 285.99 162.698 285.99 161.317V152.809C285.99 152.535 285.768 152.313 285.495 152.313C285.221 152.313 285 152.535 285 152.809V161.317C285 163.244 286.569 164.813 288.496 164.813H309.503C311.431 164.813 313 163.244 313 161.317V152.809C313 152.535 312.778 152.314 312.505 152.314Z" fill="#303C42"/>
<path d="M298.014 156.286C298.557 156.829 299.443 156.83 299.987 156.286L308.003 148.269C308.196 148.075 308.196 147.762 308.003 147.569C307.81 147.375 307.496 147.375 307.303 147.569L299.495 155.377V137.682C299.495 137.408 299.274 137.187 299 137.187C298.727 137.187 298.505 137.408 298.505 137.682V155.377L290.697 147.569C290.504 147.376 290.19 147.376 289.997 147.569C289.804 147.762 289.804 148.076 289.997 148.269L298.014 156.286Z" fill="#303C42"/>
<path fill-rule="evenodd" clip-rule="evenodd" d="M375.224 142.196C375.486 141.4 375.224 140.814 373.962 140.814H369.786C368.723 140.814 368.234 141.317 367.971 141.877C367.971 141.877 365.845 146.531 362.839 149.548C361.868 150.421 361.421 150.701 360.889 150.701C360.627 150.701 360.223 150.42 360.223 149.625V142.196C360.223 141.241 359.925 140.814 359.046 140.814H352.481C351.815 140.814 351.418 141.26 351.418 141.674C351.418 142.577 352.921 142.788 353.077 145.334V150.86C353.077 152.069 352.836 152.292 352.304 152.292C350.886 152.292 347.441 147.619 345.399 142.272C344.988 141.234 344.584 140.814 343.513 140.814H339.338C338.147 140.814 337.906 141.317 337.906 141.877C337.906 142.87 339.323 147.804 344.506 154.323C347.958 158.773 352.822 161.186 357.245 161.186C359.904 161.186 360.23 160.651 360.23 159.728C360.23 155.475 359.989 155.074 361.322 155.074C361.939 155.074 363.002 155.354 365.483 157.499C368.319 160.046 368.787 161.186 370.375 161.186H374.551C375.742 161.186 376.344 160.651 375.997 159.594C375.203 157.372 369.836 152.801 369.595 152.496C368.978 151.783 369.155 151.464 369.595 150.828C369.602 150.822 374.699 144.379 375.224 142.196Z" fill="#303C42"/>
<path d="M413.553 137C406.08 137 400 143.08 400 150.553C400 158.026 406.08 164.106 413.553 164.106C421.026 164.106 427.106 158.026 427.106 150.553C427.106 143.08 421.026 137 413.553 137ZM413.553 163.231C406.562 163.231 400.874 157.544 400.874 150.553C400.874 143.562 406.562 137.874 413.553 137.874C420.544 137.874 426.232 143.562 426.232 150.553C426.232 157.544 420.544 163.231 413.553 163.231Z" fill="#303C42"/>
<path d="M413.99 145.307H413.116V150.116H408.307V150.99H413.116V155.799H413.99V150.99H418.799V150.116H413.99V145.307Z" fill="#303C42"/>
<path d="M301.553 89.9999C294.08 89.9999 288 96.0796 288 103.553C288 111.026 294.08 117.106 301.553 117.106C309.026 117.106 315.106 111.026 315.106 103.553C315.106 96.0796 309.026 89.9999 301.553 89.9999ZM301.553 116.231C294.562 116.231 288.874 110.544 288.874 103.553C288.874 96.562 294.562 90.8743 301.553 90.8743C308.544 90.8743 314.232 96.5621 314.232 103.553C314.232 110.544 308.544 116.231 301.553 116.231Z" fill="#303C42"/>
<path d="M296.307 103.116V103.99H306.799V103.116H296.307Z" fill="#303C42"/>
<path d="M243 96.4615C241.162 96.4615 239.667 97.9112 239.667 99.6923C239.667 101.473 241.162 102.923 243 102.923C244.838 102.923 246.333 101.473 246.333 99.6923C246.333 97.9112 244.838 96.4615 243 96.4615ZM243 102C241.687 102 240.619 100.965 240.619 99.6923C240.619 98.4198 241.687 97.3846 243 97.3846C244.313 97.3846 245.381 98.4198 245.381 99.6923C245.381 100.965 244.313 102 243 102Z" fill="#303C42"/>
<path d="M250.073 92.8722C248.184 91.0201 245.672 89.9999 243.001 89.9999C240.329 89.9999 237.818 91.0201 235.929 92.8722C232.434 96.2992 231.999 102.747 234.989 106.654L243.001 118L251.001 106.67C254.003 102.747 253.568 96.2992 250.073 92.8722ZM250.155 106.072L243.001 116.203L235.835 106.056C233.124 102.512 233.512 96.6884 236.667 93.5952C238.359 91.9364 240.608 91.0226 243.001 91.0226C245.394 91.0226 247.643 91.9364 249.335 93.5952C252.49 96.6884 252.879 102.512 250.155 106.072Z" fill="#303C42"/>
<path d="M193.301 184.968C193.124 184.792 192.859 184.74 192.629 184.836C192.399 184.931 192.249 185.156 192.249 185.405V188.696C188.918 188.829 187.25 190.209 186.995 190.439C185.314 191.818 184.167 193.74 183.75 195.874C183.542 196.905 183.504 197.963 183.64 199.006L183.64 199.009C183.642 199.019 183.643 199.028 183.644 199.037L183.775 199.79C183.82 200.044 184.017 200.244 184.27 200.291C184.524 200.338 184.779 200.223 184.912 200.002L185.305 199.347C186.511 197.341 188.015 196.011 189.774 195.395C190.568 195.114 191.408 194.991 192.249 195.032V198.441C192.249 198.69 192.4 198.915 192.63 199.011C192.861 199.106 193.127 199.053 193.303 198.875L199.82 192.325C200.061 192.084 200.06 191.693 199.818 191.453L193.301 184.968ZM193.483 196.946V194.477C193.483 194.175 193.263 193.917 192.964 193.868C192.436 193.783 191.029 193.648 189.366 194.231C187.592 194.853 186.057 196.076 184.793 197.873C184.79 197.282 184.845 196.693 184.96 196.114C185.335 194.218 186.287 192.626 187.79 191.382C187.803 191.372 187.815 191.36 187.828 191.348C187.871 191.308 189.437 189.894 192.861 189.92H192.865C193.206 189.92 193.482 189.643 193.483 189.303V186.889L198.511 191.892L193.483 196.946Z" fill="#303C42"/>
<path d="M197.74 202.949C197.399 202.949 197.123 203.225 197.123 203.565V206.172C197.122 207.193 196.294 208.021 195.273 208.022H175.084C174.062 208.021 173.235 207.193 173.233 206.172V191.478C173.235 190.457 174.062 189.629 175.084 189.628H179.349C179.69 189.628 179.966 189.352 179.966 189.011C179.966 188.671 179.69 188.395 179.349 188.395H175.084C173.381 188.397 172.002 189.776 172 191.478V206.172C172.002 207.874 173.381 209.254 175.084 209.256H195.273C196.975 209.254 198.355 207.874 198.357 206.172V203.565C198.357 203.225 198.081 202.949 197.74 202.949Z" fill="#303C42"/>
</svg>
