<svg width="11" height="16" viewBox="0 0 11 16" fill="none" xmlns="http://www.w3.org/2000/svg">
<path d="M8.80688 1.60398C7.83251 0.56969 6.53693 0 5.15903 0C3.78086 0 2.48555 0.56969 1.51118 1.60398C-0.29203 3.5178 -0.51612 7.1187 1.02588 9.30037L5.15903 15.6364L9.286 9.30922C10.8342 7.1187 10.6101 3.5178 8.80688 1.60398ZM8.84965 8.9754L5.15903 14.6329L1.46249 8.96655C0.0638772 6.98706 0.264294 3.73511 1.89184 2.00777C2.76452 1.08141 3.92479 0.571118 5.15903 0.571118C6.39327 0.571118 7.55354 1.08141 8.42649 2.00777C10.054 3.73511 10.2545 6.98706 8.84965 8.9754Z" fill="#303C42"/>
</svg>
